<?xml version="1.0" encoding="UTF-8"?>
<svg width="15px" height="15px" viewBox="0 0 15 15" version="1.1" xmlns="http://www.w3.org/2000/svg" xmlns:xlink="http://www.w3.org/1999/xlink">
    <!-- Generator: Sketch 61.2 (89653) - https://sketch.com -->
    <title>Shape</title>
    <desc>Created with Sketch.</desc>
    <g id="1.-Homepage" stroke="none" stroke-width="1" fill="none" fill-rule="evenodd">
        <g id="10.8-Hompage" transform="translate(-331.000000, -112.000000)" fill="#FFFFFF" fill-rule="nonzero">
            <g id="Group" transform="translate(15.000000, 97.000000)">
                <path d="M330.77213,28.6721029 L327.127047,25.0277004 L327.127047,25.0277004 C327.946493,23.9742399 328.439404,22.6548874 328.439404,21.2196932 C328.439404,17.7903099 325.64909,15 322.219702,15 C318.790314,15 316,17.7903099 316,21.2196932 C316,24.649854 318.790314,27.4393864 322.219702,27.4393864 C323.654898,27.4393864 324.974252,26.9464757 326.026937,26.1270312 L329.672071,29.7721601 C329.975858,30.0759468 330.468394,30.0759468 330.772181,29.7721601 C331.075939,29.4684022 331.07594,28.975913 330.772182,28.6721546 C330.772164,28.6721374 330.772147,28.6721201 330.77213,28.6721029 Z M322.220479,25.8844631 C319.647855,25.8844631 317.555703,23.7923138 317.555703,21.2196932 C317.555703,18.6478501 319.647855,16.5549233 322.220479,16.5549233 C324.793104,16.5549233 326.885256,18.6478501 326.885256,21.2196932 C326.885256,23.7923138 324.793104,25.8844631 322.220479,25.8844631 Z" id="Shape"></path>
            </g>
        </g>
    </g>
</svg>